<?xml version="1.0" encoding="UTF-8" standalone="no"?>
<!DOCTYPE svg PUBLIC "-//W3C//DTD SVG 1.1//EN"
 "http://www.w3.org/Graphics/SVG/1.1/DTD/svg11.dtd">
<!-- Generated by graphviz version 2.47.0 (20210316.0004)
 -->
<!-- Title: dependencies Pages: 1 -->
<svg width="1368pt" height="211pt"
 viewBox="0.00 0.00 1368.00 211.00" xmlns="http://www.w3.org/2000/svg" xmlns:xlink="http://www.w3.org/1999/xlink">
<g id="graph0" class="graph" transform="scale(1 1) rotate(0) translate(4 207)">
<title>dependencies</title>
<polygon fill="white" stroke="transparent" points="-4,4 -4,-207 1364,-207 1364,4 -4,4"/>
<text text-anchor="start" x="659.01" y="-42.4" font-family="Times-12" font-weight="bold" font-size="14.00">Legend</text>
<polygon fill="#ffffb3" stroke="transparent" points="446,-10 446,-30 466,-30 466,-10 446,-10"/>
<text text-anchor="start" x="469.63" y="-15.4" font-family="Times-12" font-size="14.00"> &#160;Declarations</text>
<polygon fill="#8dd3c7" stroke="transparent" points="559,-10 559,-30 579,-30 579,-10 559,-10"/>
<text text-anchor="start" x="582.73" y="-15.4" font-family="Times-12" font-size="14.00"> &#160;Module</text>
<polygon fill="#80b1d3" stroke="transparent" points="645,-10 645,-30 665,-30 665,-10 645,-10"/>
<text text-anchor="start" x="668.78" y="-15.4" font-family="Times-12" font-size="14.00"> &#160;Bootstrap</text>
<polygon fill="#fdb462" stroke="transparent" points="742,-10 742,-30 762,-30 762,-10 742,-10"/>
<text text-anchor="start" x="765.67" y="-15.4" font-family="Times-12" font-size="14.00"> &#160;Providers</text>
<polygon fill="#fb8072" stroke="transparent" points="838,-10 838,-30 858,-30 858,-10 838,-10"/>
<text text-anchor="start" x="861.73" y="-15.4" font-family="Times-12" font-size="14.00"> &#160;Exports</text>
<g id="clust1" class="cluster">
<title>cluster_AuthModule</title>
<polygon fill="none" stroke="black" stroke-dasharray="1,5" points="8,-70 8,-195 1352,-195 1352,-70 8,-70"/>
</g>
<g id="clust6" class="cluster">
<title>cluster_AuthModule_providers</title>
<polygon fill="none" stroke="black" points="230,-78 230,-130 1344,-130 1344,-78 230,-78"/>
</g>
<g id="clust3" class="cluster">
<title>cluster_AuthModule_imports</title>
<polygon fill="none" stroke="black" points="16,-78 16,-130 222,-130 222,-78 16,-78"/>
</g>
<!-- MailModule -->
<g id="node1" class="node">
<title>MailModule</title>
<polygon fill="#8dd3c7" stroke="black" points="213.99,-122 210.99,-126 189.99,-126 186.99,-122 128.01,-122 128.01,-86 213.99,-86 213.99,-122"/>
<text text-anchor="middle" x="171" y="-99.8" font-family="Times,serif" font-size="14.00">MailModule</text>
</g>
<!-- AuthModule -->
<g id="node3" class="node">
<title>AuthModule</title>
<polygon fill="#8dd3c7" stroke="black" points="651.55,-187 648.55,-191 627.55,-191 624.55,-187 564.45,-187 564.45,-151 651.55,-151 651.55,-187"/>
<text text-anchor="middle" x="608" y="-164.8" font-family="Times,serif" font-size="14.00">AuthModule</text>
</g>
<!-- MailModule&#45;&gt;AuthModule -->
<g id="edge1" class="edge">
<title>MailModule&#45;&gt;AuthModule</title>
<path fill="none" stroke="black" d="M171,-122.11C171,-141.34 171,-169 171,-169 171,-169 554.1,-169 554.1,-169"/>
<polygon fill="black" stroke="black" points="554.1,-172.5 564.1,-169 554.1,-165.5 554.1,-172.5"/>
</g>
<!-- UserModule -->
<g id="node2" class="node">
<title>UserModule</title>
<polygon fill="#8dd3c7" stroke="black" points="109.98,-122 106.98,-126 85.98,-126 82.98,-122 24.02,-122 24.02,-86 109.98,-86 109.98,-122"/>
<text text-anchor="middle" x="67" y="-99.8" font-family="Times,serif" font-size="14.00">UserModule</text>
</g>
<!-- UserModule&#45;&gt;AuthModule -->
<g id="edge2" class="edge">
<title>UserModule&#45;&gt;AuthModule</title>
<path fill="none" stroke="black" d="M67,-122.29C67,-144.21 67,-178 67,-178 67,-178 554.19,-178 554.19,-178"/>
<polygon fill="black" stroke="black" points="554.19,-181.5 564.19,-178 554.19,-174.5 554.19,-181.5"/>
</g>
<!-- AccessTokenStrategy -->
<g id="node4" class="node">
<title>AccessTokenStrategy</title>
<ellipse fill="#fdb462" stroke="black" cx="1241" cy="-104" rx="95.46" ry="18"/>
<text text-anchor="middle" x="1241" y="-99.8" font-family="Times,serif" font-size="14.00">AccessTokenStrategy</text>
</g>
<!-- AccessTokenStrategy&#45;&gt;AuthModule -->
<g id="edge3" class="edge">
<title>AccessTokenStrategy&#45;&gt;AuthModule</title>
<path fill="none" stroke="black" d="M1241,-122.29C1241,-144.21 1241,-178 1241,-178 1241,-178 661.76,-178 661.76,-178"/>
<polygon fill="black" stroke="black" points="661.76,-174.5 651.76,-178 661.76,-181.5 661.76,-174.5"/>
</g>
<!-- AuthService -->
<g id="node5" class="node">
<title>AuthService</title>
<ellipse fill="#fdb462" stroke="black" cx="1068" cy="-104" rx="59.11" ry="18"/>
<text text-anchor="middle" x="1068" y="-99.8" font-family="Times,serif" font-size="14.00">AuthService</text>
</g>
<!-- AuthService&#45;&gt;AuthModule -->
<g id="edge4" class="edge">
<title>AuthService&#45;&gt;AuthModule</title>
<path fill="none" stroke="black" d="M1068,-122.11C1068,-141.34 1068,-169 1068,-169 1068,-169 661.69,-169 661.69,-169"/>
<polygon fill="black" stroke="black" points="661.69,-165.5 651.69,-169 661.69,-172.5 661.69,-165.5"/>
</g>
<!-- GoogleAuthStrategy -->
<g id="node6" class="node">
<title>GoogleAuthStrategy</title>
<ellipse fill="#fdb462" stroke="black" cx="900" cy="-104" rx="90.91" ry="18"/>
<text text-anchor="middle" x="900" y="-99.8" font-family="Times,serif" font-size="14.00">GoogleAuthStrategy</text>
</g>
<!-- GoogleAuthStrategy&#45;&gt;AuthModule -->
<g id="edge5" class="edge">
<title>GoogleAuthStrategy&#45;&gt;AuthModule</title>
<path fill="none" stroke="black" d="M900,-122.03C900,-138.4 900,-160 900,-160 900,-160 661.72,-160 661.72,-160"/>
<polygon fill="black" stroke="black" points="661.72,-156.5 651.72,-160 661.72,-163.5 661.72,-156.5"/>
</g>
<!-- KakaoAuthStrategy -->
<g id="node7" class="node">
<title>KakaoAuthStrategy</title>
<ellipse fill="#fdb462" stroke="black" cx="703" cy="-104" rx="87.96" ry="18"/>
<text text-anchor="middle" x="703" y="-99.8" font-family="Times,serif" font-size="14.00">KakaoAuthStrategy</text>
</g>
<!-- KakaoAuthStrategy&#45;&gt;AuthModule -->
<g id="edge6" class="edge">
<title>KakaoAuthStrategy&#45;&gt;AuthModule</title>
<path fill="none" stroke="black" d="M633.52,-115.03C633.52,-115.03 633.52,-140.78 633.52,-140.78"/>
<polygon fill="black" stroke="black" points="630.02,-140.78 633.52,-150.78 637.02,-140.78 630.02,-140.78"/>
</g>
<!-- LocalAuthStrategy -->
<g id="node8" class="node">
<title>LocalAuthStrategy</title>
<ellipse fill="#fdb462" stroke="black" cx="513" cy="-104" rx="84.53" ry="18"/>
<text text-anchor="middle" x="513" y="-99.8" font-family="Times,serif" font-size="14.00">LocalAuthStrategy</text>
</g>
<!-- LocalAuthStrategy&#45;&gt;AuthModule -->
<g id="edge7" class="edge">
<title>LocalAuthStrategy&#45;&gt;AuthModule</title>
<path fill="none" stroke="black" d="M580.87,-114.73C580.87,-114.73 580.87,-140.87 580.87,-140.87"/>
<polygon fill="black" stroke="black" points="577.37,-140.87 580.87,-150.87 584.37,-140.87 577.37,-140.87"/>
</g>
<!-- NaverAuthStrategy -->
<g id="node9" class="node">
<title>NaverAuthStrategy</title>
<ellipse fill="#fdb462" stroke="black" cx="324" cy="-104" rx="86.23" ry="18"/>
<text text-anchor="middle" x="324" y="-99.8" font-family="Times,serif" font-size="14.00">NaverAuthStrategy</text>
</g>
<!-- NaverAuthStrategy&#45;&gt;AuthModule -->
<g id="edge8" class="edge">
<title>NaverAuthStrategy&#45;&gt;AuthModule</title>
<path fill="none" stroke="black" d="M324,-122.03C324,-138.4 324,-160 324,-160 324,-160 554.25,-160 554.25,-160"/>
<polygon fill="black" stroke="black" points="554.25,-163.5 564.25,-160 554.25,-156.5 554.25,-163.5"/>
</g>
</g>
</svg>
