<?xml version="1.0" encoding="UTF-8" standalone="no"?>
<!DOCTYPE svg PUBLIC "-//W3C//DTD SVG 1.1//EN"
 "http://www.w3.org/Graphics/SVG/1.1/DTD/svg11.dtd">
<!-- Generated by graphviz version 2.47.0 (20210316.0004)
 -->
<!-- Title: dependencies Pages: 1 -->
<svg width="900pt" height="211pt"
 viewBox="0.00 0.00 900.00 211.00" xmlns="http://www.w3.org/2000/svg" xmlns:xlink="http://www.w3.org/1999/xlink">
<g id="graph0" class="graph" transform="scale(1 1) rotate(0) translate(4 207)">
<title>dependencies</title>
<polygon fill="white" stroke="transparent" points="-4,4 -4,-207 896,-207 896,4 -4,4"/>
<text text-anchor="start" x="425.01" y="-42.4" font-family="Times-12" font-weight="bold" font-size="14.00">Legend</text>
<polygon fill="#ffffb3" stroke="transparent" points="212,-10 212,-30 232,-30 232,-10 212,-10"/>
<text text-anchor="start" x="235.63" y="-15.4" font-family="Times-12" font-size="14.00"> &#160;Declarations</text>
<polygon fill="#8dd3c7" stroke="transparent" points="325,-10 325,-30 345,-30 345,-10 325,-10"/>
<text text-anchor="start" x="348.73" y="-15.4" font-family="Times-12" font-size="14.00"> &#160;Module</text>
<polygon fill="#80b1d3" stroke="transparent" points="411,-10 411,-30 431,-30 431,-10 411,-10"/>
<text text-anchor="start" x="434.78" y="-15.4" font-family="Times-12" font-size="14.00"> &#160;Bootstrap</text>
<polygon fill="#fdb462" stroke="transparent" points="508,-10 508,-30 528,-30 528,-10 508,-10"/>
<text text-anchor="start" x="531.67" y="-15.4" font-family="Times-12" font-size="14.00"> &#160;Providers</text>
<polygon fill="#fb8072" stroke="transparent" points="604,-10 604,-30 624,-30 624,-10 604,-10"/>
<text text-anchor="start" x="627.73" y="-15.4" font-family="Times-12" font-size="14.00"> &#160;Exports</text>
<g id="clust1" class="cluster">
<title>cluster_AppModule</title>
<polygon fill="none" stroke="black" stroke-dasharray="1,5" points="8,-70 8,-195 884,-195 884,-70 8,-70"/>
</g>
<g id="clust3" class="cluster">
<title>cluster_AppModule_imports</title>
<polygon fill="none" stroke="black" points="154,-78 154,-130 876,-130 876,-78 154,-78"/>
</g>
<g id="clust6" class="cluster">
<title>cluster_AppModule_providers</title>
<polygon fill="none" stroke="black" points="16,-78 16,-130 146,-130 146,-78 16,-78"/>
</g>
<!-- AuthModule -->
<g id="node1" class="node">
<title>AuthModule</title>
<polygon fill="#8dd3c7" stroke="black" points="867.55,-122 864.55,-126 843.55,-126 840.55,-122 780.45,-122 780.45,-86 867.55,-86 867.55,-122"/>
<text text-anchor="middle" x="824" y="-99.8" font-family="Times,serif" font-size="14.00">AuthModule</text>
</g>
<!-- AppModule -->
<g id="node8" class="node">
<title>AppModule</title>
<polygon fill="#8dd3c7" stroke="black" points="514.66,-187 511.66,-191 490.66,-191 487.66,-187 431.34,-187 431.34,-151 514.66,-151 514.66,-187"/>
<text text-anchor="middle" x="473" y="-164.8" font-family="Times,serif" font-size="14.00">AppModule</text>
</g>
<!-- AuthModule&#45;&gt;AppModule -->
<g id="edge1" class="edge">
<title>AuthModule&#45;&gt;AppModule</title>
<path fill="none" stroke="black" d="M824,-122.29C824,-144.21 824,-178 824,-178 824,-178 524.99,-178 524.99,-178"/>
<polygon fill="black" stroke="black" points="524.99,-174.5 514.99,-178 524.99,-181.5 524.99,-174.5"/>
</g>
<!-- CarModule -->
<g id="node2" class="node">
<title>CarModule</title>
<polygon fill="#8dd3c7" stroke="black" points="761.76,-122 758.76,-126 737.76,-126 734.76,-122 682.24,-122 682.24,-86 761.76,-86 761.76,-122"/>
<text text-anchor="middle" x="722" y="-99.8" font-family="Times,serif" font-size="14.00">CarModule</text>
</g>
<!-- CarModule&#45;&gt;AppModule -->
<g id="edge2" class="edge">
<title>CarModule&#45;&gt;AppModule</title>
<path fill="none" stroke="black" d="M722,-122.11C722,-141.34 722,-169 722,-169 722,-169 524.68,-169 524.68,-169"/>
<polygon fill="black" stroke="black" points="524.68,-165.5 514.68,-169 524.68,-172.5 524.68,-165.5"/>
</g>
<!-- DbModule -->
<g id="node3" class="node">
<title>DbModule</title>
<polygon fill="#8dd3c7" stroke="black" points="664.16,-122 661.16,-126 640.16,-126 637.16,-122 587.84,-122 587.84,-86 664.16,-86 664.16,-122"/>
<text text-anchor="middle" x="626" y="-99.8" font-family="Times,serif" font-size="14.00">DbModule</text>
</g>
<!-- DbModule&#45;&gt;AppModule -->
<g id="edge3" class="edge">
<title>DbModule&#45;&gt;AppModule</title>
<path fill="none" stroke="black" d="M626,-122.03C626,-138.4 626,-160 626,-160 626,-160 524.81,-160 524.81,-160"/>
<polygon fill="black" stroke="black" points="524.81,-156.5 514.81,-160 524.81,-163.5 524.81,-156.5"/>
</g>
<!-- MailModule -->
<g id="node4" class="node">
<title>MailModule</title>
<polygon fill="#8dd3c7" stroke="black" points="569.99,-122 566.99,-126 545.99,-126 542.99,-122 484.01,-122 484.01,-86 569.99,-86 569.99,-122"/>
<text text-anchor="middle" x="527" y="-99.8" font-family="Times,serif" font-size="14.00">MailModule</text>
</g>
<!-- MailModule&#45;&gt;AppModule -->
<g id="edge4" class="edge">
<title>MailModule&#45;&gt;AppModule</title>
<path fill="none" stroke="black" d="M499.42,-122.11C499.42,-122.11 499.42,-140.99 499.42,-140.99"/>
<polygon fill="black" stroke="black" points="495.92,-140.99 499.42,-150.99 502.92,-140.99 495.92,-140.99"/>
</g>
<!-- RedisModule -->
<g id="node5" class="node">
<title>RedisModule</title>
<polygon fill="#8dd3c7" stroke="black" points="465.94,-122 462.94,-126 441.94,-126 438.94,-122 374.06,-122 374.06,-86 465.94,-86 465.94,-122"/>
<text text-anchor="middle" x="420" y="-99.8" font-family="Times,serif" font-size="14.00">RedisModule</text>
</g>
<!-- RedisModule&#45;&gt;AppModule -->
<g id="edge5" class="edge">
<title>RedisModule&#45;&gt;AppModule</title>
<path fill="none" stroke="black" d="M448.44,-122.11C448.44,-122.11 448.44,-140.99 448.44,-140.99"/>
<polygon fill="black" stroke="black" points="444.95,-140.99 448.44,-150.99 451.95,-140.99 444.95,-140.99"/>
</g>
<!-- TermModule -->
<g id="node6" class="node">
<title>TermModule</title>
<polygon fill="#8dd3c7" stroke="black" points="355.87,-122 352.87,-126 331.87,-126 328.87,-122 266.13,-122 266.13,-86 355.87,-86 355.87,-122"/>
<text text-anchor="middle" x="311" y="-99.8" font-family="Times,serif" font-size="14.00">TermModule</text>
</g>
<!-- TermModule&#45;&gt;AppModule -->
<g id="edge6" class="edge">
<title>TermModule&#45;&gt;AppModule</title>
<path fill="none" stroke="black" d="M311,-122.03C311,-138.4 311,-160 311,-160 311,-160 421.28,-160 421.28,-160"/>
<polygon fill="black" stroke="black" points="421.28,-163.5 431.28,-160 421.28,-156.5 421.28,-163.5"/>
</g>
<!-- UserModule -->
<g id="node7" class="node">
<title>UserModule</title>
<polygon fill="#8dd3c7" stroke="black" points="247.98,-122 244.98,-126 223.98,-126 220.98,-122 162.02,-122 162.02,-86 247.98,-86 247.98,-122"/>
<text text-anchor="middle" x="205" y="-99.8" font-family="Times,serif" font-size="14.00">UserModule</text>
</g>
<!-- UserModule&#45;&gt;AppModule -->
<g id="edge7" class="edge">
<title>UserModule&#45;&gt;AppModule</title>
<path fill="none" stroke="black" d="M205,-122.11C205,-141.34 205,-169 205,-169 205,-169 421.12,-169 421.12,-169"/>
<polygon fill="black" stroke="black" points="421.13,-172.5 431.12,-169 421.12,-165.5 421.13,-172.5"/>
</g>
<!-- AppService -->
<g id="node9" class="node">
<title>AppService</title>
<ellipse fill="#fdb462" stroke="black" cx="81" cy="-104" rx="56.74" ry="18"/>
<text text-anchor="middle" x="81" y="-99.8" font-family="Times,serif" font-size="14.00">AppService</text>
</g>
<!-- AppService&#45;&gt;AppModule -->
<g id="edge8" class="edge">
<title>AppService&#45;&gt;AppModule</title>
<path fill="none" stroke="black" d="M81,-122.29C81,-144.21 81,-178 81,-178 81,-178 421.05,-178 421.05,-178"/>
<polygon fill="black" stroke="black" points="421.05,-181.5 431.05,-178 421.05,-174.5 421.05,-181.5"/>
</g>
</g>
</svg>
